<svg width="27" height="36" viewBox="0 0 27 36" fill="none" xmlns="http://www.w3.org/2000/svg">
<g id="Symbols/Crests/Hufflepuff">
<path id="Crest-Hufflepuff" fill-rule="evenodd" clip-rule="evenodd" d="M24.2638 21.1648C24.0465 20.495 23.7192 19.7974 23.2547 19.1138C22.4816 17.975 20.8678 16.2446 17.9161 15.5051C19.3592 15.1149 20.4816 14.1974 20.6157 11.7691L20.6462 11.2179L20.1526 11.3874C20.1337 11.3932 18.1545 11.946 13.6403 8.91771C12.5337 8.16969 10.7865 7.59212 9.07597 8.09869C9.09347 7.99848 9.10364 7.89551 9.10364 7.78976C9.10364 6.85165 8.38682 6.08852 7.50588 6.08852C6.62471 6.08852 5.90813 6.85165 5.90813 7.78976C5.90813 8.53879 6.36551 9.17477 6.99813 9.40112C6.25318 10.1861 5.66194 11.2642 5.25351 12.6067C5.14969 12.9484 5.06881 13.2852 5.01064 13.6171L4.95813 13.7543C3.30315 18.0858 4.39717 20.4875 5.19605 22.2408C5.89914 23.784 6.33453 24.7485 4.9035 26.3591C4.21814 25.4006 3.60775 24.2165 3.10166 22.688C2.1195 19.7208 2.09845 9.27825 2.11595 6.10564C3.27051 6.2562 5.36727 6.16431 7.82373 4.37394C9.65467 3.03954 11.6216 2.3041 13.5133 2.2462C15.4053 2.3041 17.3722 3.03954 19.2031 4.37394C21.6598 6.16456 23.7561 6.25646 24.9109 6.10564C24.926 8.86207 24.9118 17.1029 24.2638 21.1648ZM17.231 30.3764C16.6584 30.7135 16.0788 31.0567 15.5051 31.4341C16.4175 28.8494 16.0703 25.9573 15.1896 24.3129C14.5082 23.0405 13.2371 22.0012 11.4132 21.2219C11.1834 20.7878 10.3433 19.0506 10.8308 17.7099C11.0864 17.0067 11.6918 16.5067 12.63 16.2239C13.2279 16.0437 13.8747 15.9563 14.5267 15.8984V15.9047H14.8814C19.5094 15.9047 21.7539 18.1923 22.6798 19.5562C23.4503 20.6907 23.8065 21.868 23.8788 22.8224C22.3348 27.369 19.8551 28.831 17.231 30.3764ZM12.4368 15.4971C11.2725 15.8481 10.5096 16.5009 10.169 17.4373C9.73342 18.6357 10.1116 20.0049 10.459 20.8672C8.4204 20.0451 6.90944 18.7785 6.15857 17.2464C5.80052 16.515 5.62457 15.7292 5.61748 14.8994C5.76174 13.391 6.34895 12.3474 7.36753 11.8013C8.74653 11.0611 10.4812 11.442 11.2716 11.9493C15.6928 14.7853 19.5827 12.8442 19.7459 12.7601L19.7598 12.753C19.2414 14.814 17.5096 14.9329 15.3878 15.0761C14.403 15.1426 13.3849 15.2113 12.4368 15.4971ZM8.98043 8.92326C9.46004 8.73921 9.9484 8.66116 10.4252 8.66116C11.5123 8.66116 12.5392 9.06803 13.2612 9.55647C16.1987 11.5271 18.1462 12.0591 19.2499 12.1638C18.6942 12.395 16.9531 12.9944 14.7417 12.5664C14.8386 11.7716 14.3304 11.0309 13.5819 10.8957C12.9937 10.7892 12.4299 11.0883 12.1395 11.6014C11.973 11.508 11.8061 11.4103 11.6379 11.3023C10.5522 10.6059 8.57461 10.308 7.04804 11.1268C6.84394 11.2363 6.62826 11.3786 6.41494 11.5591C7.03905 10.2244 7.898 9.33868 8.98043 8.92326ZM7.50589 8.73542C7.01587 8.73542 6.61762 8.31118 6.61762 7.78975C6.61762 7.26833 7.01587 6.84384 7.50589 6.84384C7.99567 6.84384 8.39416 7.26833 8.39416 7.78975C8.39416 8.31118 7.99567 8.73542 7.50589 8.73542ZM9.79728 30.3762C8.20496 29.4388 6.66586 28.5317 5.35639 26.9488C7.20152 24.9139 6.5663 23.5181 5.83435 21.9113C5.19439 20.5059 4.42674 18.8187 5.01253 16.047C5.1147 16.5817 5.28615 17.0989 5.52951 17.5956C6.46318 19.5013 8.42135 21.0213 11.0443 21.8773C12.7728 22.5971 13.9605 23.5425 14.5733 24.6871C15.4774 26.3752 15.7416 29.6863 14.3469 32.2647C14.065 32.4876 13.7865 32.723 13.5147 32.979C12.3384 31.872 11.0493 31.1131 9.79728 30.3762ZM26.3017 4.10385L25.364 4.46791C25.2701 4.50417 23.0319 5.33376 20.0044 3.12721C17.9424 1.62437 15.7047 0.797296 13.5336 0.735611L13.5121 0.735107L13.4932 0.735611C11.3222 0.797296 9.08448 1.62437 7.02249 3.12721C3.99537 5.33351 1.75624 4.50442 1.66827 4.46993L0.719451 4.08245L0.704552 5.16407C0.696748 5.74542 0.522688 19.4422 1.76334 23.1901C3.48336 28.3857 6.34422 30.0696 9.11073 31.6983C10.5191 32.5274 11.8496 33.3104 13.0131 34.5491L13.5147 35.0832L14.0163 34.5491C15.1799 33.3104 16.5097 32.5277 17.9178 31.6986C20.6836 30.0698 23.5435 28.386 25.2635 23.1901C26.5042 19.4422 26.3301 5.74542 26.3223 5.16407L26.3017 4.10385Z" fill="#212028"/>
</g>
</svg>
