<?xml version="1.0" encoding="UTF-8"?>
<svg width="23px" height="23px" viewBox="0 0 23 23" version="1.1" xmlns="http://www.w3.org/2000/svg" xmlns:xlink="http://www.w3.org/1999/xlink">
    <!-- Generator: Sketch 56.2 (81672) - https://sketch.com -->
    <title>Group 13</title>
    <desc>Created with Sketch.</desc>
    <defs>
        <polygon id="path-1" points="0 0.170588235 15.5624258 0.170588235 15.5624258 15.4557353 0 15.4557353"></polygon>
        <polygon id="path-3" points="0.24465 0.419264706 9.297 0.419264706 9.297 9.29411765 0.24465 9.29411765"></polygon>
    </defs>
    <g id="Page-1" stroke="none" stroke-width="1" fill="none" fill-rule="evenodd">
        <g id="WW-global-nav-strip-default---not-logged-in" transform="translate(-153.000000, -43.000000)">
            <g id="icon" transform="translate(127.000000, 17.000000)">
                <g id="Group-13" transform="translate(26.000000, 26.000000)">
                    <path d="M14.80515,13.9544118 L13.77765,12.9470588 C13.61715,13.1367647 13.48215,13.3411765 13.30065,13.5191176 C13.11915,13.6970588 12.91065,13.8294118 12.71715,13.9852941 L13.74465,14.9941176 L13.65165,13.8632353 L14.80515,13.9544118 Z" id="Fill-1" fill="#FFFFFF"></path>
                    <g id="Group-5" transform="translate(0.000000, 0.300294)">
                        <mask id="mask-2" fill="white">
                            <use xlink:href="#path-1"></use>
                        </mask>
                        <g id="Clip-4"></g>
                        <path d="M13.3008,12.1792647 L13.7778,12.6469118 C16.2963,9.64544118 16.1598,5.20867647 13.3008,2.40573529 C10.2603,-0.575147059 5.3118,-0.575147059 2.2713,2.40573529 C-0.4392,5.06308824 -0.7182,9.19838235 1.4043,12.1777941 L2.4798,11.1233824 C0.9288,8.73661765 1.2078,5.52779412 3.3318,3.44544118 C4.5603,2.24102941 6.1728,1.63955882 7.7868,1.63955882 C9.3993,1.63955882 11.0118,2.24102941 12.2403,3.44544118 C14.6958,5.85279412 14.6958,9.77191176 12.2403,12.1792647 C10.1868,14.1910294 7.0668,14.4969118 4.6608,13.1439706 L3.5538,14.2292647 C4.8378,15.0425 6.3108,15.4557353 7.7853,15.4557353 C9.5448,15.4557353 11.2833,14.8425 12.7173,13.6851471 L12.2403,13.2189706 L13.3008,12.1792647 Z" id="Fill-3" fill="#FFFFFF" mask="url(#mask-2)"></path>
                    </g>
                    <path d="M13.7775,12.9470588 L13.3005,12.4794118 L12.24,13.5191176 L12.717,13.9867647 C12.9105,13.8294118 13.119,13.6970588 13.3005,13.5191176 C13.482,13.3411765 13.617,13.1367647 13.7775,12.9470588" id="Fill-6" fill="#FFFFFF"></path>
                    <g id="Group-10" transform="translate(13.500000, 13.535588)">
                        <mask id="mask-4" fill="white">
                            <use xlink:href="#path-3"></use>
                        </mask>
                        <g id="Clip-9"></g>
                        <path d="M1.86915,2.91485294 L1.78815,1.9325 L2.79015,2.01191176 L7.17615,6.31191176 L6.25515,7.21485294 L1.86915,2.91485294 Z M3.46215,0.589852941 L1.30515,0.419264706 L1.50015,0.610441176 L0.43965,1.65014706 L0.24465,1.45897059 L0.41865,3.57220588 L6.25515,9.29426471 L9.29715,6.31191176 L3.46215,0.589852941 Z" id="Fill-8" fill="#FFFFFF" mask="url(#mask-4)"></path>
                    </g>
                    <polygon id="Fill-11" fill="#FFFFFF" points="15.00075 14.1454412 14.80575 13.9542647 13.65225 13.8630882 13.74525 14.9939706 13.94025 15.1851471"></polygon>
                </g>
            </g>
        </g>
    </g>
</svg>